<svg xmlns="http://www.w3.org/2000/svg" viewBox="0 0 32 32">
  <rect width="32" height="32" rx="6" fill="#1a1e2e"/>
  <svg x="3" y="3" width="26" height="26" viewBox="0 0 534 534">
    <g transform="translate(0,534) scale(0.1,-0.1)" fill="#a5b8ff" stroke="none">
      <path d="M2399 5007 c-77 -29 -139 -95 -139 -148 0 -14 20 -84 45 -157 62
-186 79 -280 72 -422 -9 -195 -77 -359 -223 -533 -40 -47 -127 -225 -144 -292
-28 -110 -57 -135 -284 -249 -255 -129 -412 -243 -551 -402 -163 -187 -266
-395 -300 -608 -19 -115 -19 -191 0 -297 39 -225 146 -423 324 -599 75 -74
115 -105 179 -139 247 -127 529 -105 1042 84 220 81 328 107 445 108 116 0
203 -26 288 -85 l27 -20 -56 -61 c-127 -139 -216 -294 -255 -442 -13 -52 -23
-127 -26 -214 l-6 -134 41 5 c50 7 182 74 280 141 79 54 134 112 210 219 26
37 51 67 56 68 5 0 32 -17 60 -38 182 -135 334 -184 583 -186 103 -1 125 2
139 16 17 16 16 21 -11 90 -51 130 -147 273 -239 355 -83 73 -245 177 -380
242 -102 51 -126 66 -126 83 0 12 -18 58 -39 102 -69 142 -196 242 -388 305
-262 86 -442 81 -878 -21 -144 -33 -199 -33 -261 -1 -121 62 -105 214 28 276
63 29 358 107 407 107 18 0 94 -24 170 -54 129 -52 192 -67 341 -82 36 -4 102
2 190 16 235 39 277 48 471 100 85 23 197 50 249 60 52 11 148 36 213 57 174
55 227 108 227 230 0 83 -17 132 -60 175 l-37 37 41 20 c104 49 147 150 127
296 -16 110 -91 237 -152 257 -10 3 -4 18 18 52 70 105 52 274 -45 411 -33 47
-95 92 -140 101 -26 5 -27 7 -24 69 6 109 -34 217 -109 293 -62 64 -92 77
-174 76 -92 0 -115 -9 -365 -126 -47 -22 -103 -46 -124 -54 -21 -8 -53 -23
-71 -34 -40 -25 -71 -26 -83 -2 -5 9 -12 80 -15 157 -8 207 -39 339 -114 490
-68 137 -165 249 -251 291 -47 23 -155 29 -203 11z"/>
    </g>
  </svg>
</svg>
